<svg xmlns="http://www.w3.org/2000/svg" viewBox="0 0 254.53 40.34"><defs><style>.cls-1{fill:#fff;}.cls-2{opacity:0.6;}</style></defs><title>Asset 2</title><g id="Layer_2" data-name="Layer 2"><g id="Layer_1-2" data-name="Layer 1"><polygon class="cls-1" points="101.03 2.09 101.03 37.96 84.27 40.34 103.89 40.34 103.89 0 84.27 0 101.03 2.09"/><ellipse class="cls-1" cx="98.13" cy="21.05" rx="1.07" ry="1.91"/><path class="cls-1" d="M122.08,29.48h-2.84V19c0-2.21-.81-3.43-3-3.43a8.1,8.1,0,0,0-4.68,1.93V29.48h-2.84v-16h2.5l.16,1.9a9.38,9.38,0,0,1,5.77-2.25c3.43,0,4.93,1.87,4.93,5.49Z"/><path class="cls-1" d="M134.18,8.33a7.36,7.36,0,0,0-2.25-.41c-1.47,0-2.5.59-2.5,2.84v2.68h4.46v2.28h-4.46V29.48H126.6V15.73h-2.37V13.45h2.37V10.86c0-3.52,1.72-5.24,4.77-5.24a7.51,7.51,0,0,1,2.93.53Z"/><path class="cls-1" d="M134.09,21.53c0-5.18,2.68-8.42,7.8-8.42s7.17,3.27,7.17,8c0,5.27-2.18,8.7-7.58,8.7C135.93,29.85,134.09,26.27,134.09,21.53Zm12-.19c0-4.43-1.56-5.9-4.33-5.9s-4.74,1.68-4.74,6,1.5,6.18,4.62,6.18C144.41,27.58,146.1,25.89,146.1,21.34Z"/><path class="cls-1" d="M161,16.07a7.5,7.5,0,0,0-5.68,1.75V29.48H152.5v-16h2.37l.22,2.31a6.08,6.08,0,0,1,5.33-2.65l.59,0Z"/><path class="cls-1" d="M166.06,29.48h-2.84v-16h2.43l.16,1.81a8.76,8.76,0,0,1,5.46-2.15c2.12,0,3.4.72,4,2.21a8.83,8.83,0,0,1,5.55-2.21c3.37,0,4.55,1.87,4.55,5.46V29.48h-2.84V19c0-2.15-.44-3.37-2.5-3.37a7.8,7.8,0,0,0-4.3,1.78c0,.37.06.78.06,1.19V29.48H173V19c0-2.15-.44-3.37-2.5-3.37a7.73,7.73,0,0,0-4.43,1.9Z"/><path class="cls-1" d="M201.34,26.46c0,.87.16,1.25,1,1.25a3.26,3.26,0,0,0,1-.19l.12,1.78a5.13,5.13,0,0,1-2.21.5,2.21,2.21,0,0,1-2.46-1.9,6.91,6.91,0,0,1-5.15,2c-4.05,0-4.74-2.74-4.74-4.3,0-4.27,3.77-5.46,8.3-5.46.5,0,1,0,1.4.06V18.6c0-2-.56-3.27-3.18-3.27-2.21,0-3.06.87-3.4,2.65l-2.5-.47c.5-3,2.43-4.4,6.14-4.4,4,0,5.74,1.53,5.74,5.52Zm-2.78-4.24a12.28,12.28,0,0,0-1.62-.09c-2.21,0-5.18.22-5.18,3,0,1.37.5,2.56,2.68,2.56a6,6,0,0,0,4.12-1.81Z"/><path class="cls-1" d="M214.39,28.79a8,8,0,0,1-3.93,1.06c-3,0-4.52-1.37-4.52-4.58V15.73h-2.46V13.45h2.46V8.8l2.84-.44v5.08h4.43v2.28h-4.43V24.9c0,1.68.37,2.62,2.31,2.62a6.56,6.56,0,0,0,2.81-.78Z"/><path class="cls-1" d="M218.1,10.36a1.84,1.84,0,0,1-2-2.06,1.82,1.82,0,0,1,2-2,1.84,1.84,0,0,1,2,2A1.86,1.86,0,0,1,218.1,10.36Zm1.37,19.12h-2.84v-16h2.84Z"/><path class="cls-1" d="M222.78,21.53c0-5.18,2.68-8.42,7.8-8.42s7.17,3.27,7.17,8c0,5.27-2.18,8.7-7.58,8.7C224.62,29.85,222.78,26.27,222.78,21.53Zm12-.19c0-4.43-1.56-5.9-4.33-5.9s-4.74,1.68-4.74,6,1.5,6.18,4.62,6.18C233.1,27.58,234.79,25.89,234.79,21.34Z"/><path class="cls-1" d="M254.53,29.48h-2.84V19c0-2.21-.81-3.43-3-3.43A8.1,8.1,0,0,0,244,17.54V29.48h-2.84v-16h2.5l.16,1.9a9.38,9.38,0,0,1,5.77-2.25c3.43,0,4.93,1.87,4.93,5.49Z"/><path class="cls-1" d="M18.28,29.4H13.44V20.14H4.8V29.4H0V6.82H4.8V16h8.64V6.82h4.84Z"/><path class="cls-1" d="M21,21.32c0-5.86,3.59-8.51,8-8.51,4.93,0,7,3,7,7.52,0,.53,0,1.56-.09,2.12H26c.09,2.68,1.22,3.68,3.28,3.68,1.68,0,2.34-.94,2.65-2.31l4,1c-.59,3-3,5-6.89,5C22.93,29.78,21,25.72,21,21.32Zm10.07-1.87c0-2.34-.84-3.24-2.37-3.24-1.34,0-2.65.87-2.68,3.24Z"/><path class="cls-1" d="M51.16,25.35c0,.87.16,1.25,1,1.25a3.27,3.27,0,0,0,1-.19l.13,2.71a8.2,8.2,0,0,1-3,.62c-1.87,0-3-.53-3.34-2.06a5.68,5.68,0,0,1-4.83,2.09c-4.05,0-4.83-2.71-4.83-4.34,0-5,5.15-5.71,9.32-5.68v-.59c0-1.84-.25-3-2.31-3-1.56,0-2.15.65-2.46,2.25l-4-.78c.5-3.06,2.43-4.87,6.86-4.87s6.52,1.68,6.52,5.74Zm-4.59-2.84h-.75c-2.25.06-3.87.5-3.87,2.15,0,.94.41,1.78,1.9,1.78a4.17,4.17,0,0,0,2.71-1.06Z"/><path class="cls-1" d="M59.52,29.4H54.81V5.85h4.71Z"/><path class="cls-1" d="M73.28,28.62a9.82,9.82,0,0,1-4.77,1.15c-3.4,0-5.18-1.56-5.18-5.27V16.58H60.89V13.15h2.43V8.35L68,7.73v5.43h4.3v3.43H68v7.27c0,1.44.41,2.18,1.9,2.18a5.89,5.89,0,0,0,2.68-.75Z"/><path class="cls-1" d="M89.43,29.4H84.72V19.14c0-1.75-.69-2.5-2.15-2.5a5.23,5.23,0,0,0-3.18,1.28V29.4H74.68V5.85h4.68v8.8a7.8,7.8,0,0,1,5-1.84c3.49,0,5.05,1.78,5.05,5.49Z"/><g class="cls-2"><path class="cls-1" d="M116.59,36.81v3.31h-.75l-.24-.65a3.89,3.89,0,0,1-2.37.74c-1.62,0-3.58-.79-3.58-3.31a3.2,3.2,0,0,1,3.54-3.33c1.45,0,3,.54,3.35,2.13h-1.26c-.15-.32-.49-1.07-1.94-1.07a2.16,2.16,0,0,0-2.45,2.22,2.14,2.14,0,0,0,2.35,2.26c1.22,0,1.9-.43,2.19-1.31h-2.22v-1Z"/><path class="cls-1" d="M135.87,33.73h1.41l3.07,6.32H139l-.66-1.45h-3.64l-.67,1.45h-1.31Zm2,3.81-1.32-2.82-1.32,2.82Z"/><path class="cls-1" d="M157.93,34.8h-2.83V33.73H162V34.8h-2.83v5.26h-1.23Z"/><path class="cls-1" d="M178.56,33.73h5.67V34.8h-4.44v1.47h3.82v1.06h-3.82V39h4.54v1.06h-5.78Z"/><path class="cls-1" d="M200.38,33.73h1.24l1.22,4.35h0l1.21-4.35h1.18l1.23,4.34h0l1.21-4.34h1.21l-1.84,6.32h-1.18l-1.2-4.49h0l-1.21,4.49h-1.21Z"/><path class="cls-1" d="M227.57,33.73H229L232,40.06h-1.3l-.66-1.45h-3.64l-.67,1.45h-1.31Zm2,3.81-1.32-2.82-1.32,2.82Z"/><path class="cls-1" d="M249.88,37.53l-3.09-3.79h1.51l2.19,2.68,2.18-2.68h1.52l-3.09,3.79v2.53h-1.24Z"/></g></g></g></svg>