<svg id="Layer_1" data-name="Layer 1" xmlns="http://www.w3.org/2000/svg" viewBox="0 0 84.63 39.87"><defs><style>.cls-1{fill:#fff;}</style></defs><title>owh-logo-white</title><path class="cls-1" d="M6.59,35.84a2,2,0,1,0,1.84,2A1.86,1.86,0,0,0,6.59,35.84Zm0,3.48a1.27,1.27,0,0,1-1.17-1.47,1.27,1.27,0,0,1,1.17-1.46,1.27,1.27,0,0,1,1.17,1.46A1.27,1.27,0,0,1,6.59,39.32Z" transform="translate(0 0)"/><polygon class="cls-1" points="9.1 39.77 9.77 39.77 9.77 38.07 11.51 38.07 11.51 37.52 9.77 37.52 9.77 36.51 11.75 36.51 11.75 35.93 9.1 35.93 9.1 39.77"/><polygon class="cls-1" points="12.35 39.77 13.02 39.77 13.02 38.07 14.76 38.07 14.76 37.52 13.02 37.52 13.02 36.51 15 36.51 15 35.93 12.35 35.93 12.35 39.77"/><rect class="cls-1" x="15.59" y="35.93" width="0.67" height="3.85"/><path class="cls-1" d="M18.78,39.32a1.27,1.27,0,0,1-1.17-1.47,1.27,1.27,0,0,1,1.17-1.46,0.92,0.92,0,0,1,1,.76h0.67a1.5,1.5,0,0,0-1.63-1.31,2,2,0,0,0,0,4,1.58,1.58,0,0,0,1.64-1.56H19.76A1,1,0,0,1,18.78,39.32Z" transform="translate(0 0)"/><polygon class="cls-1" points="21.76 38.07 23.7 38.07 23.7 37.52 21.76 37.52 21.76 36.51 23.86 36.51 23.86 35.93 21.09 35.93 21.09 39.77 23.89 39.77 23.89 39.19 21.76 39.19 21.76 38.07"/><path class="cls-1" d="M28,35.84a2,2,0,1,0,1.84,2A1.86,1.86,0,0,0,28,35.84Zm0,3.48a1.27,1.27,0,0,1-1.17-1.47,1.2,1.2,0,1,1,2.34,0A1.27,1.27,0,0,1,28,39.32Z" transform="translate(0 0)"/><polygon class="cls-1" points="32.92 38.76 32.91 38.76 31.16 35.93 30.45 35.93 30.45 39.77 31.09 39.77 31.09 36.95 31.1 36.95 32.85 39.77 33.56 39.77 33.56 35.93 32.92 35.93 32.92 38.76"/><polygon class="cls-1" points="39.45 38.87 39.44 38.87 38.68 35.93 37.99 35.93 37.22 38.87 37.21 38.87 36.51 35.93 35.83 35.93 36.84 39.77 37.54 39.77 38.32 36.83 38.33 36.83 39.1 39.77 39.79 39.77 40.85 35.93 40.16 35.93 39.45 38.87"/><path class="cls-1" d="M43,35.84a2,2,0,1,0,1.84,2A1.86,1.86,0,0,0,43,35.84Zm0,3.48a1.27,1.27,0,0,1-1.17-1.47,1.2,1.2,0,1,1,2.34,0A1.27,1.27,0,0,1,43,39.32Z" transform="translate(0 0)"/><polygon class="cls-1" points="47.5 38.94 47.49 38.94 46.43 35.93 45.48 35.93 45.48 39.77 46.12 39.77 46.12 36.81 46.13 36.81 47.2 39.77 47.76 39.77 48.82 36.81 48.83 36.81 48.83 39.77 49.47 39.77 49.47 35.93 48.54 35.93 47.5 38.94"/><polygon class="cls-1" points="51.01 38.07 52.95 38.07 52.95 37.52 51.01 37.52 51.01 36.51 53.1 36.51 53.1 35.93 50.34 35.93 50.34 39.77 53.14 39.77 53.14 39.19 51.01 39.19 51.01 38.07"/><polygon class="cls-1" points="56.23 38.76 56.22 38.76 54.47 35.93 53.76 35.93 53.76 39.77 54.4 39.77 54.4 36.95 54.41 36.95 56.16 39.77 56.88 39.77 56.88 35.93 56.23 35.93 56.23 38.76"/><path class="cls-1" d="M57.73,36.66h0.33a0.4,0.4,0,0,1-.33.48v0.31a0.76,0.76,0,0,0,.67-0.79V35.93H57.73v0.73Z" transform="translate(0 0)"/><path class="cls-1" d="M61.43,37.68l-1.11-.3a0.52,0.52,0,0,1-.46-0.5,0.6,0.6,0,0,1,.71-0.5,0.71,0.71,0,0,1,.83.68h0.67a1.3,1.3,0,0,0-1.48-1.23A1.24,1.24,0,0,0,59.19,37a1,1,0,0,0,.85,1c0.53,0.15.88,0.21,1.15,0.32a0.46,0.46,0,0,1,.32.47,0.66,0.66,0,0,1-.81.58,0.83,0.83,0,0,1-1-.82H59a1.4,1.4,0,0,0,1.61,1.37,1.32,1.32,0,0,0,1.53-1.2A1,1,0,0,0,61.43,37.68Z" transform="translate(0 0)"/><polygon class="cls-1" points="67.01 37.46 65.26 37.46 65.26 35.93 64.59 35.93 64.59 39.77 65.26 39.77 65.26 38.04 67.01 38.04 67.01 39.77 67.68 39.77 67.68 35.93 67.01 35.93 67.01 37.46"/><polygon class="cls-1" points="69.22 38.07 71.16 38.07 71.16 37.52 69.22 37.52 69.22 36.51 71.31 36.51 71.31 35.93 68.55 35.93 68.55 39.77 71.35 39.77 71.35 39.19 69.22 39.19 69.22 38.07"/><path class="cls-1" d="M73,35.93l-1.48,3.85h0.69l0.36-1h1.53l0.36,1h0.72l-1.48-3.85H73Zm-0.24,2.32,0.58-1.65h0L74,38.24H72.78Z" transform="translate(0 0)"/><polygon class="cls-1" points="76.31 35.93 75.64 35.93 75.64 39.77 78.27 39.77 78.27 39.19 76.31 39.19 76.31 35.93"/><polygon class="cls-1" points="77.93 36.51 79.15 36.51 79.15 39.77 79.82 39.77 79.82 36.51 81.04 36.51 81.04 35.93 77.93 35.93 77.93 36.51"/><polygon class="cls-1" points="83.96 37.46 82.21 37.46 82.21 35.93 81.53 35.93 81.53 39.77 82.21 39.77 82.21 38.04 83.96 38.04 83.96 39.77 84.63 39.77 84.63 35.93 83.96 35.93 83.96 37.46"/><path class="cls-1" d="M59.81,5.08h0Z" transform="translate(0 0)"/><path class="cls-1" d="M63.88,1.87V0H59V2.41a8.9,8.9,0,0,1,3.38-.68A8.64,8.64,0,0,1,63.88,1.87Z" transform="translate(0 0)"/><path class="cls-1" d="M63.58,5.55a3.68,3.68,0,0,0-1.29-.23,5.52,5.52,0,0,0-2.86.93L59,6.52V25.59A32.53,32.53,0,0,0,63.2,21c0.24-.32.47-0.65,0.69-1V17.75h1.34l0.21-.38a17.73,17.73,0,0,0,1.43-3.84h-3V5.68Z" transform="translate(0 0)"/><path class="cls-1" d="M79.75,0V13.53H71.46s0,0.09,0,.14a16.22,16.22,0,0,1-1.31,4.08h9.61v14.4h4.88V0H79.75Z" transform="translate(0 0)"/><path class="cls-1" d="M59,30.47v1.69h4.89v-5.8a38.21,38.21,0,0,1-4.38,3.75Z" transform="translate(0 0)"/><path class="cls-1" d="M25.59,21.74c0.9-1.42,1.91-3,3.11-4.94l0.75-1.21a18.77,18.77,0,0,0-1.47-7,24.41,24.41,0,0,0-3.47,2.73l-0.33.36a16.28,16.28,0,0,1,.58,4.35,14.19,14.19,0,0,1-2.38,8.25,9,9,0,0,1-7.65,3.76,9,9,0,0,1-7.65-3.76A14.19,14.19,0,0,1,4.7,16.08,14.18,14.18,0,0,1,7.08,7.83a9,9,0,0,1,7.65-3.76,9,9,0,0,1,7.65,3.76l0.05,0.08h0l1-.66c0.7-.48,1.65-1.14,2.73-1.82l-0.38-.49A13.79,13.79,0,0,0,14.73,0a13.79,13.79,0,0,0-11,4.93A17.48,17.48,0,0,0,0,16.08,17.48,17.48,0,0,0,3.69,27.23a13.79,13.79,0,0,0,11,4.93A15.09,15.09,0,0,0,20.9,30.9a2,2,0,0,1,0-.39C20.86,29.21,22,27.48,25.59,21.74Z" transform="translate(0 0)"/><path class="cls-1" d="M69.32,17.48l0.12-.27,0.23-.53q0.12-.29.23-0.58l0-.09c0.06-.17.12-0.34,0.17-0.5l0-.06c0.06-.18.11-0.37,0.17-0.55v0q0.08-.29.15-0.58h0l0.08-.37c0-.14.06-0.28,0.08-0.41a9.93,9.93,0,0,0,.1-2.63c-0.45-4.43-3.35-7.47-6.82-8.16l-0.53-.08H63.24l-0.53,0H62l-0.36,0H61.39l-0.28,0-0.18,0-0.14,0-0.22.05-0.32.08h0l-0.07,0h0l-0.09,0L59.85,3,59.74,3l-0.05,0h0l-0.14.05h0l0,0-0.5.2h0V5.52h0l0.41-.24,0,0,0.37-.19h0l0.39-.17h0l0.08,0,0.42-.15h0l0.3-.08h0l0.09,0h0l0.25,0h0l0.37,0h0.48l0.42,0,0.33,0h0l0.35,0.08h0l0.33,0.11c2.84,1.05,4.35,4.79,4.17,6.87a14,14,0,0,1-.31,1.91c0,0.2-.1.41-0.15,0.61l-0.05.19-0.12.42L67.34,15l-0.14.42-0.07.19c-0.07.2-.15,0.4-0.23,0.59h0c-0.09.23-.19,0.46-0.3,0.7l-0.08.18c-0.11.23-.22,0.46-0.33,0.69h0a26.13,26.13,0,0,1-2.31,3.72c-0.24.32-.49,0.64-0.74,1L63,22.66l-0.69.82-0.65.72-0.68.71c-0.28.29-.57,0.56-0.85,0.84l-0.22.2c-0.29.27-.58,0.54-0.87,0.79l-0.67.57-0.22.18-0.46.36-0.26.2L57,28.36l-0.27.2-0.41.29L56,29l-0.42.28-0.26.17-0.45.28-0.22.14L54,30.27,54,30.3l-0.66.35-0.2.1L52.68,31l-0.24.11-0.4.18-0.25.1-0.38.15-0.25.09-0.37.12-0.23.07-0.39.1-0.2.05-0.47.1-0.09,0-0.54.07H48.69l-0.37,0H47.9l-0.41,0H47.43L47.11,32,47,32l-0.24-.08-0.13-.06-0.21-.1-0.12-.07-0.2-.13L46,31.45l-0.2-.18-0.08-.07a2.85,2.85,0,0,1-.24-0.29v0a3.13,3.13,0,0,1-.2-0.31l-0.06-.12c0-.08-0.08-0.17-0.12-0.26L45,30.05c0-.09-0.06-0.17-0.09-0.27l0-.17c0-.1,0-0.19-0.06-0.3l0-.18c0-.11,0-0.23,0-0.35s0-.11,0-0.17,0-.37,0-0.56c0-7.59,6-17.92,6.1-19A2.45,2.45,0,0,0,48.5,6.82H48.27l-0.06,0-0.05,0-0.06,0L48,6.93,48,7,47.9,7l-0.08.05-0.07.05-0.09.07-0.08.06-0.11.09-0.09.08-0.12.11-0.1.09L47,7.75l-0.11.1L46.72,8l-0.12.12-0.2.19-0.13.13L46,8.67l-0.13.12-0.28.27-0.14.14-0.37.36L45,9.65l-0.51.51c-3.22,3.18-11.32,11-14.28,13.5C31.56,21.46,41,7.5,38.14,3.87a3.28,3.28,0,0,0-.25-0.28L37.8,3.51,37.6,3.34l-0.1-.08-0.2-.13-0.11-.06-0.25-.12-0.07,0L36.53,2.8l-0.09,0-0.27-.06L36,2.69l-0.25,0H35.27l-0.44,0h-0.1l-0.37,0-0.14,0-0.43.08h0l-0.48.12L33.13,3l-0.38.11-0.13,0-0.49.17-0.1,0-0.41.16-0.15.06-0.42.18L31,3.76,30.47,4l-0.14.07-0.38.19-0.14.07-0.49.25-0.06,0-0.43.24-0.15.08-0.39.22-0.1.06-0.47.28-0.12.07-0.36.22-0.13.08-0.45.28c-1.72,1.09-3.12,2.11-3.75,2.51h0v0c0.11,0.18.2,0.37,0.3,0.56s0.19,0.38.29,0.6l0,0h0c0.1,0.22.19,0.44,0.28,0.66s0.07,0.2.09,0.28h0L24,10.72l0.14-.15,0,0,0.25-.23,0.05,0L24.74,10l0,0,0.35-.29h0l0.44-.35L26,9h0l0.41-.3h0L27,8.27h0l0.61-.42h0L28,7.58l0.09-.06,0.4-.26,0.07,0L29,7l0.06,0,0.41-.25,0.09-.05L30,6.39h0l0.41-.23,0.08,0,0.41-.22,0.07,0,0.38-.19,0,0,0.39-.19,0.08,0,0.39-.17h0l0.35-.14,0.07,0L33,4.93l0.07,0,0.32-.1h0l0.31-.07h0.07l0.29,0h0.33l0.23,0h0l0.18,0h0l0.17,0.08,0,0a0.77,0.77,0,0,1,.14.12c0.52,0.58-.23,3.2-2.8,7.36-1.13,1.83-2.14,3.46-3.07,4.94L28.95,18l-0.13.21-0.34.55-0.08.13L28,19.56l0,0.08L27.07,21l-0.51.81L25.79,23l0,0-0.3.48-0.16.25-0.19.3L25,24.3l-0.18.29-0.14.22-0.17.27-0.13.22-0.15.24-0.13.21L23.95,26l-0.12.2-0.13.21-0.11.18-0.12.2-0.1.17-0.12.19-0.09.16L23,27.46l-0.09.15-0.1.17-0.08.14-0.09.16-0.08.14-0.08.14-0.07.13-0.07.14-0.06.12-0.06.13L22.2,29l-0.06.12,0,0.1L22,29.32l0,0.09,0,0.11,0,0.09,0,0.1,0,0.08,0,0.1,0,0.07,0,0.09,0,0.06,0,0.09v0.19s0,0.09,0,.13a1.35,1.35,0,0,0,.54,1l0.19,0.17,0.06,0,0.12,0.09,0.07,0L22.81,32l0.07,0L23,32l0.07,0,0.1,0,0.07,0,0.09,0h0.43l0.09,0,0.06,0,0.08,0,0.06,0,0.08,0,0.06,0,0.07,0,0.05,0,0.07,0,0,0,0.08-.05,0,0,0.1-.08A198.09,198.09,0,0,0,44.4,13.55l-0.31.76L44,14.54l-0.2.51-0.11.29-0.16.43-0.11.3-0.15.4-0.11.31L43,17.15l-0.1.31-0.12.36-0.09.31-0.11.35-0.09.3-0.09.33-0.08.3-0.08.32-0.07.3-0.08.31L42,20.62l-0.07.3-0.06.28-0.06.29-0.05.28,0,0.28,0,0.27,0,0.27,0,0.26,0,0.26,0,0.26,0,0.25,0,0.25,0,0.25,0,0.24c0,0.08,0,.16,0,0.24s0,0.16,0,.24,0,0.15,0,.23,0,0.15,0,.23,0,0.15,0,.22,0,0.15,0,.23,0,0.14,0,.21,0,0.15,0,.22v0.2l0,0.21,0,0.2,0,0.21,0,0.19,0,0.2,0,0.18,0,0.2,0,0.18,0,0.19,0,0.17,0,0.18,0,0.16,0,0.18L42,29,42,29.15l0.05,0.15,0.06,0.16,0.05,0.14,0.06,0.16,0.06,0.13,0.07,0.16,0.06,0.13,0.07,0.15,0.07,0.12,0.08,0.14,0.07,0.12,0.08,0.14L42.88,31,43,31.09,43,31.19l0.09,0.13,0.07,0.1,0.09,0.12,0.08,0.09,0.1,0.12,0.07,0.08,0.1,0.12L43.72,32l0.11,0.11L43.9,32.2,44,32.31l0,0,0.32,0.27,0,0,0.12,0.09,0.08,0.06,0.12,0.08,0.08,0.06L44.9,33,45,33.05l0.11,0.06,0.1,0.06,0.1,0.06,0.1,0.05,0.1,0.05,0.1,0,0.11,0,0.1,0,0.11,0,0.1,0,0.1,0,0.1,0,0.1,0,0.11,0,0.1,0,0.11,0,0.1,0,0.1,0,0.1,0,0.1,0,0.1,0,0.1,0,0.1,0h1.09c3.15-.17,7-1.93,10.55-4.55q0.64-.47,1.28-1h0l0.83-.69,0.21-.18q0.82-.71,1.61-1.47l0.2-.19,0.77-.77h0a29.59,29.59,0,0,0,5.31-7.39Z" transform="translate(0 0)"/></svg>