<svg id="Isolation_Mode" data-name="Isolation Mode" xmlns="http://www.w3.org/2000/svg" viewBox="0 0 553.27 311.19"><defs><style>.cls-1,.cls-3{fill:#fff;}.cls-1{opacity:0.2;}.cls-2{opacity:0.4;}</style></defs><title>icon-bubbles</title><circle class="cls-1" cx="455.16" cy="147.42" r="32.27" transform="translate(242.21 576.82) rotate(-81.74)"/><g class="cls-2"><path class="cls-3" d="M455.12,115.14a32.27,32.27,0,1,1-31.9,27.64,32.54,32.54,0,0,1,31.9-27.64m0-.93a33.36,33.36,0,0,0-32.82,28.44,33.21,33.21,0,0,0,28.09,37.63A33.17,33.17,0,0,0,488,152.19a33.21,33.21,0,0,0-28.09-37.63,33.6,33.6,0,0,0-4.81-.35h0Z" transform="translate(-1.68 0.14)"/></g><path class="cls-3" d="M468.8,131.48a1,1,0,0,0-1,.89,14.62,14.62,0,0,1-.38,2.22v0.06c-1.65,6.48-6.39,9.16-11.61,11.88a49.76,49.76,0,0,1-3.93-4.19l5.47,0.79a1,1,0,1,0,.28-1.92l-7.4-1.07a15.29,15.29,0,0,1-1.1-2.13l10.7,1.55a1,1,0,1,0,.28-1.92L448.44,136a13.8,13.8,0,0,1-.38-2l16.12,2.34a1,1,0,1,0,.28-1.92L448.1,132,448,132s0-.08,0-0.12v-0.06a14.62,14.62,0,0,1,.26-2.23h0a1,1,0,0,0-.75-1.15h-0.06a1,1,0,0,0-1.1.82,14.4,14.4,0,0,0-.25,2.54H446a16.41,16.41,0,0,0,.59,5.24,1,1,0,0,0,.18.46c1.34,4.12,4.22,7.22,7.14,10.06-4.67,2.44-9.41,5.16-11.64,10.84,0,0,0,0,0,.06a8.15,8.15,0,0,0-.56,2.62,14.22,14.22,0,0,0,0,1.59,1,1,0,1,0,1.91,0s0-.63.08-1.4a8,8,0,0,1,.42-2v-0.06c2-5.22,6.5-7.66,11.3-10.15a53.43,53.43,0,0,1,4.16,4.35l-5.59-.81h0a1,1,0,1,0-.25,1.93l7.46,1.08a16.06,16.06,0,0,1,1.11,2.06L451.49,156h0a1,1,0,1,0-.25,1.93l11.73,1.7a13.32,13.32,0,0,1,.37,2.08l-16.24-2.36h0a1,1,0,1,0-.25,1.93l16.42,2.38c0,0.13,0,.24-0.05.36-0.16.76-.32,1.37-0.32,1.37a1,1,0,1,0,1.82.57,14.22,14.22,0,0,0,.41-1.54c0.07-.35.11-0.7,0.16-1.08a1,1,0,0,0,.06-0.85,5.43,5.43,0,0,0,0-.74s0,0,0-.06a16,16,0,0,0-2.82-7.65l-0.05-.07a37.55,37.55,0,0,0-5.21-6c5.1-2.69,10.28-5.88,12.06-12.86H469.2a14.4,14.4,0,0,0,.49-2.51,1,1,0,0,0-.76-1.09Z" transform="translate(-1.68 0.14)"/><circle class="cls-1" cx="51.86" cy="213.02" r="44.98"/><g class="cls-2"><path class="cls-3" d="M53.53,167.9a45,45,0,1,1-45,45,45,45,0,0,1,45-45m0-1.3a46.28,46.28,0,1,0,46.28,46.28A46.33,46.33,0,0,0,53.53,166.6h0Z" transform="translate(-1.68 0.14)"/></g><path class="cls-3" d="M62.73,192.13a0.79,0.79,0,0,0,.09,1.11l1.68,1.68-4.45,4.45-1.73-1.68-2.22-2.22A0.79,0.79,0,1,0,55,196.55l1.73,1.68L37.09,217.79a0.79,0.79,0,0,0-.15.89L40.1,226l-4.1,4.1-0.12.11a0.79,0.79,0,0,0,1.21,1l4.1-4.1,7.36,3.16a0.79,0.79,0,0,0,.84-0.2L69,210.53l1.63,1.68,0.11,0.12a0.79,0.79,0,1,0,1-1.21L69.69,209a0.79,0.79,0,0,0-.15-0.2l-1.24-1.24-0.44-.44,4.45-4.45L74,204.4h0a0.8,0.8,0,1,0,1.13-1.15L73,201.14l-0.1-.1-8.94-8.94A0.78,0.78,0,0,0,62.73,192.13Zm8.44,9.51-4.45,4.45-5.58-5.58,4.45-4.5Zm-11.91-.84a0.79,0.79,0,0,0,.2.25l6.82,6.82,0.1,0,1.48,1.53L48.7,228.61l-7.11-3.06-3-7L41,216.16l2.82,2.77,1.14-1.14L42.18,215l2.17-2.17,2.82,2.77,1.14-1.14-2.82-2.77,2.22-2.22,2.82,2.77,1.09-1.09-2.77-2.82,2.22-2.22,2.82,2.77L55,207.76,52.15,205l2.27-2.27,2.82,2.77,1.09-1.09-2.82-2.77,2.27-2.27Z" transform="translate(-1.68 0.14)"/><circle class="cls-1" cx="177.93" cy="113.2" r="44.18" transform="translate(44.08 277.66) rotate(-83.65)"/><g class="cls-2"><path class="cls-3" d="M177.87,69a44.67,44.67,0,0,1,4.94.27A44.18,44.18,0,0,1,178,157.38a44.66,44.66,0,0,1-4.94-.27A44.18,44.18,0,0,1,177.87,69m0-1.28a45.46,45.46,0,0,0-5,90.63,46.13,46.13,0,0,0,5.08.28A45.46,45.46,0,0,0,183,68a46.13,46.13,0,0,0-5.08-.28h0Z" transform="translate(-1.68 0.14)"/></g><path class="cls-3" d="M176.38,86.2a4.39,4.39,0,0,0-.84,2.75l-5.2-.58a0.94,0.94,0,0,0-1,.83L169,92l-6.54-.73a0.94,0.94,0,0,0-1,.83l-4.58,41.13a0.94,0.94,0,0,0,.83,1l35.52,4a0.94,0.94,0,0,0,1-.83l4.58-41.13a0.81,0.81,0,0,0-.83-1l-6.54-.73,0.31-2.8a0.94,0.94,0,0,0-.83-1l-5.38-.6a4.6,4.6,0,0,0-1.88-4.88A5.5,5.5,0,0,0,176.38,86.2Zm6.21,0.51a2.82,2.82,0,0,1,1.12,3.73,0.94,0.94,0,0,0,.73,1.38l5.32,0.59L189.47,95a0.94,0.94,0,0,0-.05.47L189.14,98l-18.7-2.08,0.29-2.57a0.94,0.94,0,0,0,0-.12V93.2a0.94,0.94,0,0,0,0-.12l0-.18,0.29-2.57,5.32,0.59a0.94,0.94,0,0,0,1-1.19,2.67,2.67,0,0,1,.44-2.38,3.54,3.54,0,0,1,3.51-1.21A3.67,3.67,0,0,1,182.59,86.71Zm9.87,49.54-33.65-3.74,4.37-39.26,5.61,0.62-0.31,2.8a0.94,0.94,0,0,0,.83,1L189.87,100a0.94,0.94,0,0,0,1-.83l0.31-2.8L196.83,97ZM181,102.81l-3.74-.42a0.94,0.94,0,0,0-1,.83L175.84,107l-3.74-.42a0.94,0.94,0,0,0-1,.83l-0.42,3.74a0.94,0.94,0,0,0,.83,1l3.74,0.42-0.42,3.74a0.94,0.94,0,0,0,.83,1l3.74,0.42a0.94,0.94,0,0,0,1-.83l0.42-3.74,3.74,0.42a0.94,0.94,0,0,0,1-.83L186,109a0.94,0.94,0,0,0-.83-1l-3.74-.42,0.42-3.74A0.81,0.81,0,0,0,181,102.81Zm-1.56,5.5a0.94,0.94,0,0,0,.83,1l3.74,0.42-0.21,1.87-3.74-.42a0.94,0.94,0,0,0-1,.83l-0.42,3.74-1.87-.21,0.42-3.74a0.94,0.94,0,0,0-.83-1l-3.74-.42,0.21-1.87,3.74,0.42a0.94,0.94,0,0,0,1-.83l0.42-3.74,1.87,0.21Zm-10.8,12-0.21,1.87,16.83,1.87,0.21-1.87Zm-0.42,3.74L168.05,126l16.83,1.87,0.21-1.87Zm-0.42,3.74-0.21,1.87,16.83,1.87,0.21-1.87Z" transform="translate(-1.68 0.14)"/><circle class="cls-1" cx="333.82" cy="40.38" r="39.37" transform="translate(5.63 120.86) rotate(-20.72)"/><g class="cls-2"><path class="cls-3" d="M333.81,1a39.4,39.4,0,1,1-13.92,2.56A39.39,39.39,0,0,1,333.81,1m0-1.14A40.52,40.52,0,1,0,371.71,26,40.36,40.36,0,0,0,333.81-.14h0Z" transform="translate(-1.68 0.14)"/></g><path class="cls-3" d="M322.13,23.32l-0.14.05,0,0.06,0,0,0,0.06-0.09,0s0,0.09-.06.13c-3.09,3.8-3.9,7.72-3.25,11.1a12.32,12.32,0,0,0,5.19,7.86l0.06,0,4.6,2.8c-1.46,4.07-3.06,7.9-4.12,11.17a0.82,0.82,0,0,0,.35.92l8.71,5.16a0.83,0.83,0,0,0,1.16-.44l3.48-11,9.92,6a0.83,0.83,0,0,0,1.16-.44l3.12-9.63a0.82,0.82,0,0,0-.35-0.92c-3-1.76-6.7-3.61-10.5-5.69l1.61-5.1,0-.06A12.32,12.32,0,0,0,341.6,26c-1.75-3-5-5.37-9.78-6.18l-0.13-.06,0,0-0.06,0h-0.16a14.67,14.67,0,0,0-5,.93A14.22,14.22,0,0,0,322.13,23.32ZM331,21.49c0,0.14.11,0.28,0.16,0.42s0.16,0.48.23,0.76,0.1,0.56.16,0.84c0,0.05,0,.09.05,0.14,0.11,0.54.19,1.08,0.25,1.49a1.52,1.52,0,0,1,0,.2,14,14,0,0,0-3.44.67,14.86,14.86,0,0,0-3,1.78,14.53,14.53,0,0,1-1.89-3.46A10.65,10.65,0,0,1,327,22.21,10.48,10.48,0,0,1,331,21.49Zm9.22,5.39a10.81,10.81,0,0,1,1.15,8.07s0,0,0,0l-1.68,5.34a4.44,4.44,0,0,1-.23.78l-6.26,19.75-7.29-4.32c1.85-5.52,5.14-12.73,6.73-20.19a5.81,5.81,0,0,1,.19-0.76,33.64,33.64,0,0,0,.62-9.26,0.79,0.79,0,0,0,0-.16,3.4,3.4,0,0,0,0-1.27c-0.06-.47-0.16-1-0.28-1.58s-0.21-1-.34-1.46C336.41,22.78,338.88,24.6,340.22,26.88Zm-15.75,2.47a0.8,0.8,0,0,0,.37.28l0.06,0A30.9,30.9,0,0,0,331.16,36a72.7,72.7,0,0,1-2.3,7.89l-4.29-2.55s0,0,0,0a10.81,10.81,0,0,1-4.48-6.81c-0.5-2.59.17-5.56,2.24-8.61A19.78,19.78,0,0,0,324.47,29.35ZM332,26.86a31.72,31.72,0,0,1-.52,7.43,31.69,31.69,0,0,1-5.29-5.18A15.37,15.37,0,0,1,329,27.48,14.85,14.85,0,0,1,332,26.86Zm18.39,20.4-2.6,8.06L338.4,49.7l2.35-7.6C344.28,44,347.68,45.68,350.42,47.26Z" transform="translate(-1.68 0.14)"/><circle class="cls-1" cx="35.91" cy="144.51" r="33.26" transform="translate(-20.77 6.27) rotate(-7.72)"/><g class="cls-2"><path class="cls-3" d="M36,111.24a33.29,33.29,0,1,1-4.51.31,33.27,33.27,0,0,1,4.51-.31m0-1a34.67,34.67,0,0,0-4.64.31,34.23,34.23,0,0,0,4.56,68.15,34.67,34.67,0,0,0,4.64-.31A34.23,34.23,0,0,0,36,110.28h0Z" transform="translate(-1.68 0.14)"/></g><path class="cls-3" d="M48.2,129.28L20,133.11a0.79,0.79,0,0,0-.68.89l2.76,20.36A0.79,0.79,0,0,0,23,155l10.18-1.38,0.42,3.13-3.13.42h0a0.79,0.79,0,1,0,.23,1.56l14.1-1.91h0a0.8,0.8,0,1,0,0-1.6,0.79,0.79,0,0,0-.24,0l-3.18.43-0.42-3.13,10.23-1.39a0.79,0.79,0,0,0,.68-0.89L49.09,130A0.68,0.68,0,0,0,48.2,129.28Zm2,20.47-26.63,3.61L21,134.57,47.63,131ZM28.36,135.13a0.79,0.79,0,0,0-.79.79l-0.28,9-2.45.33h0a0.79,0.79,0,1,0,.23,1.56l3.13-.42a0.79,0.79,0,0,0,.69-0.79L29,140.76l1.42,4.59a0.79,0.79,0,0,0,.88.58l1.86-.25,2.68,4a0.79,0.79,0,0,0,1.44-.39l1.11-9.82L42,148.61a0.79,0.79,0,0,0,1.53-.11l0.81-4.35,2.55-.35h0a0.79,0.79,0,0,0-.23-1.56l-3.13.42a0.79,0.79,0,0,0-.66.64l-0.4,2.2L38.69,136a0.79,0.79,0,0,0-1.52.21L35.95,147l-1.75-2.6a0.79,0.79,0,0,0-.75-0.35l-1.66.23-2.66-8.56a0.79,0.79,0,0,0-.62-0.56H28.36ZM39.8,155.9l-4.65.63-0.42-3.08,4.65-.63Z" transform="translate(-1.68 0.14)"/><g class="cls-2"><path class="cls-3" d="M413,235.68a34.67,34.67,0,0,1,4.21.26A34.31,34.31,0,0,1,413,304.3a34.67,34.67,0,0,1-4.21-.26A34.31,34.31,0,0,1,413,235.68m0-1A35.3,35.3,0,0,0,408.7,305a35.78,35.78,0,0,0,4.33.27A35.3,35.3,0,0,0,417.29,235a35.78,35.78,0,0,0-4.33-.27h0Z" transform="translate(-1.68 0.14)"/></g><circle class="cls-1" cx="413" cy="269.99" r="34.31" transform="translate(93.12 647.24) rotate(-83.02)"/><path class="cls-3" d="M420.21,256.57l-10.93-1.34a0.79,0.79,0,0,0-.88.69l-0.48,3.92-7-.86a2.47,2.47,0,0,0-2.75,2.15l-2.28,18.58a2.47,2.47,0,0,0,2.15,2.75l26.48,3.24a2.47,2.47,0,0,0,2.75-2.15L429.54,265a2.47,2.47,0,0,0-2.15-2.75l-7-.85,0.48-3.92A0.68,0.68,0,0,0,420.21,256.57Zm-1.36,4.61L409.49,260l0.38-3.14,9.37,1.15Zm9.11,3.6-2.28,18.58a0.86,0.86,0,0,1-1,.77l-26.48-3.24a0.86,0.86,0,0,1-.77-1l2.28-18.58a0.86,0.86,0,0,1,1-.77l26.48,3.24A0.86,0.86,0,0,1,428,264.79Zm-12,.77-4.71-.58a0.79,0.79,0,0,0-.88.69L410,268.81l-3.14-.38a0.79,0.79,0,0,0-.88.69l-0.58,4.71a0.79,0.79,0,0,0,.69.88l3.14,0.38-0.38,3.14a0.79,0.79,0,0,0,.69.88l4.71,0.58a0.79,0.79,0,0,0,.88-0.69l0.38-3.14,3.14,0.38a0.79,0.79,0,0,0,.88-0.69l0.58-4.71a0.79,0.79,0,0,0-.69-0.88l-3.14-.38,0.38-3.14a0.79,0.79,0,0,0-.59-0.87H416Zm-1.36,4.61a0.79,0.79,0,0,0,.69.88l3.14,0.38-0.38,3.14-3.14-.38a0.79,0.79,0,0,0-.88.69L413.66,278l-3.14-.38,0.38-3.14a0.79,0.79,0,0,0-.69-0.88l-3.14-.38,0.38-3.14,3.14,0.38a0.79,0.79,0,0,0,.88-0.69l0.38-3.14L415,267Z" transform="translate(-1.68 0.14)"/><circle class="cls-1" cx="288.89" cy="108.3" r="48.1" transform="translate(140.24 379.7) rotate(-82.1)"/><g class="cls-2"><path class="cls-3" d="M288.83,60.19a48.1,48.1,0,1,1-47.58,41.49,48.53,48.53,0,0,1,47.58-41.49m0-1.39a49.49,49.49,0,0,0-6.74,98.52,50.1,50.1,0,0,0,6.86.48,49.49,49.49,0,0,0,6.74-98.52,50.1,50.1,0,0,0-6.86-.48h0Z" transform="translate(-1.68 0.14)"/></g><path class="cls-3" d="M292.66,79.37L281,82.27a1.12,1.12,0,0,0-.84.94L279,91,260.2,88.35a1.12,1.12,0,0,0-1.26,1L253.71,127a1.12,1.12,0,0,0,1,1.26l20,2.77,22,3.06,0.14,0,20,2.77a1.12,1.12,0,0,0,1.26-1l5.23-37.69a1,1,0,0,0-1-1.26l-18.85-2.62,1.08-7.76a1.12,1.12,0,0,0-.55-1.14l-10.47-6-0.06-.08A1.12,1.12,0,0,0,292.66,79.37ZM302.2,87l-1.11,8a1.12,1.12,0,0,0,0,.21L296,131.74,276,129l5.08-36.59,1.13-8.18,10.54-2.63ZM290.29,91.4l-0.62,4.43-4.43-.62-0.31,2.22,4.43,0.62-0.62,4.43,2.22,0.31,0.62-4.43L296,99l0.31-2.22-4.43-.62,0.62-4.43Zm25.66,43.11L298.21,132l4.92-35.48L320.87,99Zm-42.13-5.85-17.74-2.46L261,90.73l17.74,2.46Zm40.09-28.34-0.62,4.43,4.43,0.62,0.62-4.43ZM305,99.09l-0.62,4.43,4.43,0.62,0.62-4.43Zm-33.12-4.6-0.62,4.43,4.43,0.62,0.62-4.43Zm-8.94-1.24-0.62,4.43,4.43,0.62,0.62-4.43ZM313,107l-0.62,4.43L316.8,112l0.62-4.43ZM304,105.74l-0.62,4.43,4.43,0.62,0.62-4.43Zm-33.12-4.6-0.62,4.43,4.43,0.62,0.62-4.43ZM262,99.9l-0.62,4.43,4.43,0.62,0.62-4.43Zm50.08,13.73-0.62,4.43,4.43,0.62,0.62-4.43Zm-8.94-1.24-0.62,4.43,4.43,0.62,0.62-4.43ZM270,107.79l-0.62,4.43,4.43,0.62,0.62-4.43Zm-8.94-1.24L260.45,111l4.43,0.62,0.62-4.43Z" transform="translate(-1.68 0.14)"/><circle class="cls-1" cx="373.69" cy="146.21" r="52.04"/><g class="cls-2"><path class="cls-3" d="M375.37,94a52,52,0,1,1-52,52,52,52,0,0,1,52-52m0-1.51a53.55,53.55,0,1,0,53.55,53.55,53.61,53.61,0,0,0-53.55-53.55h0Z" transform="translate(-1.68 0.14)"/></g><path class="cls-3" d="M387.24,118.77l-8.64,8.64-2-2a0.91,0.91,0,1,0-1.29,1.29l2.41,2.35a0.94,0.94,0,0,0,.06.18l0.82,0.82L360.67,148l-0.71.71a6.38,6.38,0,0,0-1.29,6.64L356,158a2.85,2.85,0,0,0,0,4,2.77,2.77,0,0,0,3.94,0l2.65-2.59a6.41,6.41,0,0,0,6.58-1.29l0.76-.76,18-18,0.65,0.71a0.94,0.94,0,0,0,.24.18l0.06,0.06,2.35,2.41h0a1,1,0,0,0,1.34-1.36l-2-1.94,8.64-8.7a8.42,8.42,0,0,0,0-11.93A8.38,8.38,0,0,0,387.24,118.77Zm10.64,1.29a6.59,6.59,0,0,1,0,9.35l-8.64,8.64-0.65-.65s0,0,0-.06l-0.12-.06-7.88-7.88-0.06-.06-0.06-.06-0.53-.59,8.64-8.64A6.53,6.53,0,0,1,397.88,120.06ZM386.6,138v0.06L368.67,156l-0.76.76a4.7,4.7,0,0,1-5.35.82,0.94,0.94,0,0,0-1.18.29c-0.15.21-.15,0.21-0.06,0.12l-2.65,2.65a0.94,0.94,0,0,1-1.35,0,0.88,0.88,0,0,1,0-1.29l2.65-2.65a0.43,0.43,0,0,0,.18-0.12,0.94,0.94,0,0,0,.29-1.18,4.74,4.74,0,0,1,.88-5.41l0.65-.65,2-2,2,2,1.35-1.35-2-2,2.65-2.65,2,2,1.35-1.29-2-2.06,2.65-2.65,2,2,1.35-1.29-2.06-2,2.7-2.7,2,2,1.35-1.29-2.06-2,2.7-2.7Zm-30.28,27.92a0.94,0.94,0,0,0-.24,0l-0.18.06a0.86,0.86,0,0,0-.18.12c-0.08.06-.14,0.08-0.18,0.12a2.25,2.25,0,0,0-.18.24c-0.12.15-.27,0.31-0.41,0.53-0.29.43-.65,1-1,1.65a19.21,19.21,0,0,0-.94,2,4.84,4.84,0,0,0-.47,1.88,3.76,3.76,0,0,0,7.52,0,4.89,4.89,0,0,0-.47-1.88,18.87,18.87,0,0,0-1-1.94c-0.35-.63-0.71-1.21-1-1.65-0.15-.22-0.24-0.44-0.35-0.59s-0.17-.1-0.24-0.18a0.48,0.48,0,0,0-.47-0.35h-0.24Zm0.65,3.64a17.56,17.56,0,0,1,.88,1.76,4.86,4.86,0,0,1,.35,1.18,1.88,1.88,0,0,1-3.76,0,4.83,4.83,0,0,1,.35-1.18,16.65,16.65,0,0,1,.82-1.76c0.24-.43.49-0.78,0.71-1.12C356.54,168.79,356.72,169.12,357,169.56Z" transform="translate(-1.68 0.14)"/><circle class="cls-1" cx="108.51" cy="76.37" r="42.48" transform="translate(-16.26 26.95) rotate(-13.21)"/><g class="cls-2"><path class="cls-3" d="M108.55,33.88A42.52,42.52,0,1,1,98.8,35a42.5,42.5,0,0,1,9.74-1.13m0-1.23a43.94,43.94,0,0,0-10,1.17,43.71,43.71,0,0,0-17,77,43.71,43.71,0,1,0,27-78.13h0Z" transform="translate(-1.68 0.14)"/></g><path class="cls-3" d="M104,57.42a1.06,1.06,0,0,0-.7,1.33l1.77,7.55-1.82,1.52c-0.12-.75-0.23-1.55-0.42-2.35a7.82,7.82,0,0,0-1.2-2.78A3.68,3.68,0,0,0,98.78,61a5.48,5.48,0,0,0-4.23,2.28,18.23,18.23,0,0,0-2.53,4c-2.71,5.75-2.71,12.39-2.4,18.46,0.14,2.8.1,6.61,2.05,9.32a8.07,8.07,0,0,0,5.94,3.57c3.41,0.14,6.5-2,8.58-4.33a13.84,13.84,0,0,0,3-8.12c0.2-3.15-1-6.09-2-8.72-1.07-2.92-2.43-4.28-3.37-6.83,0-.12-0.07-0.3-0.11-0.45l2.78-2.35,0.06,0L110,68.72c0,0.15.09,0.32,0.11,0.45,0.29,2.7-.32,4.53,0,7.62,0.3,2.78.53,6,2.11,8.69a13.84,13.84,0,0,0,6.29,5.94c2.9,1.17,6.62,1.7,9.61.06a8.07,8.07,0,0,0,3.73-5.84c0.54-3.3-1.19-6.69-2.31-9.26-2.42-5.58-5.38-11.52-10.37-15.46a18.23,18.23,0,0,0-4-2.45,5.48,5.48,0,0,0-4.8-.17A3.69,3.69,0,0,0,108.59,61a7.82,7.82,0,0,0,.17,3c0.19,0.81.45,1.56,0.67,2.29l-2.31-.55-1.77-7.55a1.06,1.06,0,0,0-1.16-.88Zm10.45,3a16.22,16.22,0,0,1,3.5,2.17c4.49,3.55,7.38,9.15,9.77,14.65,1.14,2.61,2.47,5.8,2.1,8.08a6.32,6.32,0,0,1-2.59,4.35c-2.12,1.16-5.37.81-7.87-.19a12.53,12.53,0,0,1-5.28-5.09c-1.25-2.16-1.46-5-1.77-7.82s0.32-4.53,0-7.62c-0.19-1.71-1-3.57-1.46-5.37a5.88,5.88,0,0,1-.1-2.15,1.8,1.8,0,0,1,.65-1.31,1.67,1.67,0,0,1,.58-0.14A4.94,4.94,0,0,1,114.43,60.42ZM99.88,64a5.88,5.88,0,0,1,.87,2c0.42,1.8.48,3.84,1.08,5.46,1.07,2.92,2.43,4.28,3.37,6.83s2.05,5.3,1.9,7.79a12.53,12.53,0,0,1-2.46,6.91c-1.79,2-4.55,3.77-7,3.68a6.32,6.32,0,0,1-4.25-2.74c-1.35-1.88-1.57-5.32-1.71-8.17-0.31-6-.21-12.29,2.23-17.47a16.22,16.22,0,0,1,2.17-3.5,3.85,3.85,0,0,1,2.61-1.63A1.8,1.8,0,0,1,99.88,64Z" transform="translate(-1.68 0.14)"/><circle class="cls-1" cx="130.42" cy="179" r="39.37"/><g class="cls-2"><path class="cls-3" d="M132.1,139.49a39.37,39.37,0,1,1-39.37,39.37,39.37,39.37,0,0,1,39.37-39.37m0-1.14a40.51,40.51,0,1,0,40.51,40.51,40.56,40.56,0,0,0-40.51-40.51h0Z" transform="translate(-1.68 0.14)"/></g><path class="cls-3" d="M110,178.86a22.13,22.13,0,1,0,22.13-22.13A22.14,22.14,0,0,0,110,178.86Zm40.61-8.94a0.79,0.79,0,0,0-.2.15,2.16,2.16,0,0,1-2.42.2,0.79,0.79,0,0,0-.2-0.15,3.79,3.79,0,0,0-5.24,5.38l0,0,0,0A2.4,2.4,0,0,1,143,177a2.18,2.18,0,0,1-2.22,2.07l0,0a3.77,3.77,0,0,0-2.62,1,3.67,3.67,0,0,0-1.24,3c-0.43-.35-0.89-0.75-1.48-1.28a1.47,1.47,0,0,1,.15-0.25c0.31-.41.86-0.94,1.38-1.53a1.9,1.9,0,0,0,.44-1.63,2.25,2.25,0,0,0-.84-1.19,2.36,2.36,0,0,0-1.28-.54,1.77,1.77,0,0,0-1.48.59c-0.44.53-.72,0.9-0.89,1.09a0.35,0.35,0,0,1-.35.2,5.27,5.27,0,0,1-2-.49c-0.22-.1-0.21-0.11-0.4-0.2a7.09,7.09,0,1,0-12-4.05,7.16,7.16,0,0,0,2.67,4.59,12.3,12.3,0,0,0,2.27,16.25c5,4.29,11.31,3.46,15.86.44a16.73,16.73,0,0,0,5.29-5.93,11.41,11.41,0,0,0,1.14-3.06,3.27,3.27,0,0,0-.25-2.52l0,0a2.63,2.63,0,0,0-1.43-1,2.73,2.73,0,0,0-1.53.15c-0.91.33-1.73,0.91-2.67,1.28a3.9,3.9,0,0,1-.69.25,2.19,2.19,0,0,1,1.78-3.46,3.83,3.83,0,0,0,4-3.61,3.78,3.78,0,0,0-.64-2.22l0-.1s0,0,0,0l0,0s0,0,0,0l0,0a2.16,2.16,0,0,1,0-2.67,2.22,2.22,0,0,1,2.91-.59l0.15,0.1h0l0.1,0.1a3.82,3.82,0,0,0,4.35-.1A21.82,21.82,0,1,1,150.57,169.92Zm-19.91,1.93a5.5,5.5,0,0,1-2.57,5.53l-0.1,0c-0.39.18-.78,0.37-1.14,0.49a5.47,5.47,0,0,1-.84.2,5.74,5.74,0,0,1-1.14,0,5.51,5.51,0,0,1-.64-0.1,7.41,7.41,0,0,1-.79-0.2c-0.27-.09-0.58-0.21-0.89-0.35a5.53,5.53,0,0,1,1.83-10.32,5.74,5.74,0,0,1,1.14,0A5.47,5.47,0,0,1,130.66,171.84Zm4.84,6.47a1,1,0,0,1,.3.35c0,0.08,0,0-.1.15-0.48.55-1,1.12-1.43,1.68a2.77,2.77,0,0,0-.49.94,1.35,1.35,0,0,0,.3,1.28,14.45,14.45,0,0,0,3.61,2.72c0.07,0,.13,0,0.2,0s0,0,0,0a0.79,0.79,0,0,0,.79.1H139a4.55,4.55,0,0,0,1.09-.35c1.13-.46,2-1,2.62-1.24a1.15,1.15,0,0,1,.64-0.1,1.13,1.13,0,0,1,.49.4,2.17,2.17,0,0,1,0,1.33,10,10,0,0,1-1,2.62,15.23,15.23,0,0,1-4.74,5.34c-4.11,2.73-9.53,3.46-14-.35a10.66,10.66,0,0,1-1.88-14.18,7,7,0,0,0,2.91.64h0.1a3.64,3.64,0,0,0,.79,0c0.05,0,.1,0,0.15,0a6.06,6.06,0,0,0,1.28-.3l0.15,0a6.74,6.74,0,0,0,1.09-.54,11.67,11.67,0,0,0,1.14.54,5.45,5.45,0,0,0,2.82.64,2.2,2.2,0,0,0,1.33-.69c0.3-.34.5-0.72,0.89-1.19,0,0,0,0,.15,0A0.93,0.93,0,0,1,135.51,178.31Z" transform="translate(-1.68 0.14)"/><circle class="cls-1" cx="333.1" cy="221.54" r="42.2" transform="translate(65.13 520.21) rotate(-81.89)"/><g class="cls-2"><path class="cls-3" d="M333.05,179.33a42.2,42.2,0,1,1-41.72,36.25,42.58,42.58,0,0,1,41.72-36.25m0-1.22A43.42,43.42,0,0,0,327,264.52a44,44,0,0,0,6.18.44,43.42,43.42,0,0,0,6.07-86.41,44,44,0,0,0-6.18-.44h0Z" transform="translate(-1.68 0.14)"/></g><path class="cls-3" d="M351.43,200.82l-4-.57a1,1,0,0,0-1.15.86l-0.57,4a1,1,0,0,0,.86,1.15l4,0.57a1,1,0,0,0,1.15-.86l0.14-1,2,0.29-2.29,16a8.81,8.81,0,0,1-2.69,5.44,6.54,6.54,0,0,1-5.47,1.59l-8-1.14a6.41,6.41,0,0,1-4.75-3,8.85,8.85,0,0,1-1.13-6l2.29-16,2,0.29-0.14,1a1,1,0,0,0,.86,1.15l4,0.57a1,1,0,0,0,1.15-.86l0.57-4a0.87,0.87,0,0,0-.86-1.15l-4-.57a1,1,0,0,0-1.15.86l-0.14,1-3-.43a1,1,0,0,0-1.15.86l-2.43,17a10.88,10.88,0,0,0,1.38,7.36,8.63,8.63,0,0,0,6.21,4l3,0.43-1.57,11a2,2,0,0,1-4-.57l0.14-1,0.57-4a6.08,6.08,0,0,0-12-1.71l-0.29,2-0.14,1a4.05,4.05,0,0,1-8-1.14l1.86-13a6.18,6.18,0,0,0,6-5.28,6.11,6.11,0,0,0-12.1-1.72,6.16,6.16,0,0,0,4.1,6.66l-1.87,13.1a6.08,6.08,0,1,0,12,1.71l0.14-1,0.29-2a4.05,4.05,0,0,1,8,1.14l-0.57,4-0.14,1a4.05,4.05,0,0,0,8,1.14l1.57-11,3,0.43a8.76,8.76,0,0,0,7.13-2.05,10.84,10.84,0,0,0,3.32-6.69l2.43-17a0.87,0.87,0,0,0-.86-1.15l-3-.43,0.14-1A0.87,0.87,0,0,0,351.43,200.82ZM350,203.5a1,1,0,0,0-.07.5l-0.1.69-2-.29,0.29-2,2,0.29Zm-12.2-.52-2-.29,0.11-.75a1,1,0,0,0,.07-0.5l0.11-.75,2,0.29Zm-19.21,13.63a4.09,4.09,0,0,1-4.47,3.52l-0.12-.08-0.19,0a4.05,4.05,0,0,1,1.33-8A4,4,0,0,1,318.62,216.61Zm-6-.86a2,2,0,1,0,2.29-1.72A2,2,0,0,0,312.6,215.75Z" transform="translate(-1.68 0.14)"/><circle class="cls-1" cx="517.7" cy="107.01" r="34.58"/><g class="cls-2"><path class="cls-3" d="M519.37,72.3a34.58,34.58,0,1,1-34.58,34.58A34.58,34.58,0,0,1,519.37,72.3m0-1a35.58,35.58,0,1,0,35.58,35.58A35.62,35.62,0,0,0,519.37,71.3h0Z" transform="translate(-1.68 0.14)"/></g><path class="cls-3" d="M523.24,90.92A7.92,7.92,0,1,0,534.06,88a7.84,7.84,0,0,0-4.5-1A8,8,0,0,0,523.24,90.92Zm10-1.53a6.3,6.3,0,0,1,2.67,7.9l-10.87-6.22A6.27,6.27,0,0,1,533.27,89.39ZM502.2,92.85a5.57,5.57,0,0,0,0,7.85l4.94,4.89a0.8,0.8,0,0,0,.15.2l0,0,0,0,4.89,4.84a5.52,5.52,0,0,0,7.81-7.81l-4.79-4.79a0.79,0.79,0,0,0-.3-0.25l-5-5A5.61,5.61,0,0,0,502.2,92.85Zm33,5.78a6.28,6.28,0,0,1-10.82-6.22ZM508.92,94l4.54,4.59-5.58,5.58-4.54-4.59a4,4,0,0,1,2.77-6.77A4,4,0,0,1,508.92,94Zm10,10.08a3.95,3.95,0,0,1-5.58,5.58L509,105.3l5.58-5.63Zm9.63,3.51-5,5a0.79,0.79,0,0,0-.2.25l-4.84,4.79a5.51,5.51,0,0,0,0,7.81,5.57,5.57,0,0,0,7.85,0l4.69-4.74a0.8,0.8,0,0,0,.35-0.35l5-4.94a5.57,5.57,0,0,0,0-7.85A5.49,5.49,0,0,0,528.58,107.57Zm6.72,1.14a3.92,3.92,0,0,1,0,5.58l-4.59,4.59-5.58-5.58,4.59-4.59a3.89,3.89,0,0,1,2.77-1.19A4,4,0,0,1,535.3,108.71Zm-35,2.22a6.36,6.36,0,1,0,9,0A6.44,6.44,0,0,0,500.32,110.93Zm7.85,1.14a4.73,4.73,0,0,1,.49,6.08l-6.57-6.57A4.69,4.69,0,0,1,508.18,112.07Zm-0.59,7.21a4.74,4.74,0,0,1-6.62-6.62Zm22,0.69-4.4,4.4a3.92,3.92,0,0,1-5.58,0,4,4,0,0,1,0-5.63l4.4-4.35Z" transform="translate(-1.68 0.14)"/><circle class="cls-1" cx="219.62" cy="34.94" r="33.91" transform="translate(-4.3 27.37) rotate(-7.05)"/><g class="cls-2"><path class="cls-3" d="M219.67,1a33.93,33.93,0,1,1-4.21.26A33.91,33.91,0,0,1,219.67,1m0-1a35.36,35.36,0,0,0-4.33.27,34.89,34.89,0,0,0,4.24,69.51,35.36,35.36,0,0,0,4.33-.27A34.89,34.89,0,0,0,219.67,0h0Z" transform="translate(-1.68 0.14)"/></g><path class="cls-3" d="M226.14,16.83a2.38,2.38,0,0,0-2.06,2.64,2.41,2.41,0,0,0,1.85,2.06L227.11,31l-4.71.58-1.18-9.51a2.41,2.41,0,0,0,1.29-2.45,2.38,2.38,0,0,0-2.64-2.06l-4.71.58a2.38,2.38,0,0,0-2.06,2.64,2.41,2.41,0,0,0,1.85,2.06l1.18,9.51-4.71.58-1.18-9.51A2.41,2.41,0,0,0,211.53,21,2.38,2.38,0,0,0,208.89,19l-4.71.58a2.38,2.38,0,0,0-2.06,2.64A2.41,2.41,0,0,0,204,24.25l1.18,9.51-6.28.78,0.19,1.57,3.14-.39,1.55,12.55-4.71.58,0.19,1.57L243.17,45,243,43.42l-4.71.58-1.55-12.55,3.14-.39-0.19-1.57-6.28.78-1.18-9.51a2.41,2.41,0,0,0,1.29-2.45,2.38,2.38,0,0,0-2.64-2.06Zm5.78,1.67a0.79,0.79,0,0,1-.54.86l-0.15,0-4.71.58h0a0.79,0.79,0,0,1-.15-1.57l4.71-.58A0.77,0.77,0,0,1,231.93,18.5Zm-11,1.36a0.77,0.77,0,0,1-.69.88l-4.71.58a0.79,0.79,0,0,1-.19-1.57l4.71-.58A0.77,0.77,0,0,1,220.94,19.86Zm-11,1.36a0.77,0.77,0,0,1-.69.88l-4.71.58a0.79,0.79,0,1,1-.19-1.57l4.71-.58A0.77,0.77,0,0,1,210,21.22Zm21.85,9.24-3.14.39-1.16-9.41,3.14-.39Zm-11,1.36-3.14.39-1.16-9.41,3.14-.39Zm-11,1.36-3.14.39-1.16-9.41,3.14-.39Zm26.85,11-31.38,3.88-1.55-12.55,1.57-.19,1,7.84a3.16,3.16,0,1,0,6.28-.78l-1-7.84,4.71-.58,1,7.84a3.16,3.16,0,0,0,6.28-.78l-1-7.84,4.71-.58,1,7.84a3.16,3.16,0,1,0,6.28-.78l-1-7.84,1.57-.19ZM233,39.87a1.58,1.58,0,1,1-3.14.39l-1-7.84L232,32Zm-11,1.36a1.58,1.58,0,1,1-3.14.39l-1-7.84,3.14-.39Zm-11,1.36a1.58,1.58,0,0,1-3.14.39l-1-7.84,3.14-.39Z" transform="translate(-1.68 0.14)"/><circle class="cls-1" cx="224.56" cy="194.69" r="51.4" transform="translate(-28.47 36.24) rotate(-8.68)"/><g class="cls-2"><path class="cls-3" d="M224.63,143.29a51.44,51.44,0,1,1-7.82.6,51.41,51.41,0,0,1,7.82-.6m0-1.49a53.48,53.48,0,0,0-8,.61,52.89,52.89,0,0,0,7.91,105.17,53.48,53.48,0,0,0,8-.61,52.89,52.89,0,0,0-7.91-105.17h0Z" transform="translate(-1.68 0.14)"/></g><path class="cls-3" d="M197.54,180.46a1.12,1.12,0,0,0-.12,1.5l7.89,10c-0.33.76-1.2,2.74-2.18,5.64-1.2,3.51-2.36,7.69-1.88,10.83l1.35,8.85a1.12,1.12,0,0,0,1.27.94l12.86-2a17.85,17.85,0,0,0,20.6-3.14l12.93-2a1.12,1.12,0,0,0,.94-1.27L249.84,201c-0.48-3.14-2.77-6.79-5-9.78a60.2,60.2,0,0,0-3.92-4.85l5.76-11.84a1.12,1.12,0,0,0-.51-1.48s-9.89-5.07-25.32-2.72S197.54,180.46,197.54,180.46Zm46.59-5.76-5.21,10.84-31.92,5-7.11-9c0.94-.89,7.55-6.88,21.34-9C234.84,170.46,242.79,174.06,244.13,174.7Zm-23,1.25,0.51,3.32-3.32.51,0.34,2.21,3.32-.51,0.51,3.32,2.21-.34-0.51-3.32,3.32-.51-0.34-2.21-3.32.51-0.51-3.32Zm18.51,18.4c-5.25-.07-8.4-2.06-11.48-4.76l10.51-1.6Zm0.42,2.27,0.12,0.76a16.46,16.46,0,0,1-3.92,13.69,1.12,1.12,0,0,0-.24.25,15.78,15.78,0,0,1-18.3,2.93l-0.08-.06a16.35,16.35,0,0,1-8.35-12.1l-0.13-.83c5.79-2.29,11-5.66,12.66-10.7l3.25-.5C228.91,193.71,233,196.63,240,196.62Zm-31.28,2.23-0.94-6.15L219,191C217.31,194.28,213.41,196.9,208.76,198.84ZM243,192.55c2.11,2.9,4.25,6.55,4.59,8.78l1.18,7.74-9.33,1.42a19,19,0,0,0,2.9-13.46l-1-6.64C241.91,191.1,242.41,191.7,243,192.55Zm-36.24,8.22a1.12,1.12,0,0,0,0,.21l0.22,1.45a18.9,18.9,0,0,0,6.78,12l-9.19,1.4-1.18-7.74c-0.34-2.23.61-6.36,1.77-9.75,0.3-.87.51-1.49,0.79-2.24Z" transform="translate(-1.68 0.14)"/><circle class="cls-1" cx="125.4" cy="255.36" r="27.95" transform="translate(-46.53 27.58) rotate(-10.61)"/><path class="cls-3" d="M129.53,240.29a49.48,49.48,0,0,0-8.28-.9,13.2,13.2,0,0,0-2.73.18,3.13,3.13,0,0,0-.94.35,1.27,1.27,0,0,0-.68.83,1.36,1.36,0,0,0,.32,1.06,3.05,3.05,0,0,0,.75.62,13.2,13.2,0,0,0,2.48,1.16,48.1,48.1,0,0,0,6.71,1.82l-0.38,2a9.66,9.66,0,0,0-5,2.59l-4.37-.82a3.4,3.4,0,0,0-2.44-1.85,3.42,3.42,0,1,0,.65,6.52l3.34,3.8,0,0a9.57,9.57,0,0,0,2.09,5.14L119.19,266a0.68,0.68,0,0,0-.09.24l-4-.76a0.68,0.68,0,1,0-.27,1.34h0l19.51,3.65a3.44,3.44,0,0,0,4-2.73,0.68,0.68,0,0,0-.49-0.84l-0.13,0a0.68,0.68,0,0,0-.72.6,2.06,2.06,0,0,1-2.4,1.64L133.9,269a0.68,0.68,0,0,0,0-.26l-0.63-3.6a9.58,9.58,0,0,0,4.66-6.53c0-.16,0-0.32,0-0.47a0.68,0.68,0,0,0,.06-0.29,9.48,9.48,0,0,0-.33-3.59,9.31,9.31,0,0,0-.3-1l-0.09-.23c0-.06-0.08-0.09-0.1-0.15s-0.14-.41-0.23-0.61a7.08,7.08,0,0,0-1.1-1.56l0,0-0.14-.16a9.87,9.87,0,0,0-3.13-2.37c-0.11-.05-0.25-0.06-0.37-0.11a8.17,8.17,0,0,0-4-.75l0.3-1.6a50,50,0,0,0,8.27.94,13.2,13.2,0,0,0,2.73-.18,3.05,3.05,0,0,0,.93-0.31,1.36,1.36,0,0,0,.69-0.87,1.27,1.27,0,0,0-.33-1,3.13,3.13,0,0,0-.75-0.66,13.2,13.2,0,0,0-2.48-1.16A49.48,49.48,0,0,0,129.53,240.29Zm-0.27,1.43a50,50,0,0,1,7.89,2,11.67,11.67,0,0,1,2.19,1.06,2.46,2.46,0,0,1,.27.18,2,2,0,0,1-.33.11,12.72,12.72,0,0,1-2.42.11,48.83,48.83,0,0,1-8.11-.87l-0.5-.09a0.68,0.68,0,0,0-.24-0.09l0,0a47.7,47.7,0,0,1-7.07-2,12.72,12.72,0,0,1-2.21-1,2,2,0,0,1-.26-0.22,2.46,2.46,0,0,1,.32-0.07,11.67,11.67,0,0,1,2.43-.2A50,50,0,0,1,129.26,241.72Zm0.77,7.06a8.41,8.41,0,0,1,1.32.38L130,256.44a0.68,0.68,0,0,0,.55.8l6.06,1.13A8.21,8.21,0,1,1,130,248.78Zm2.58,1.09a10.54,10.54,0,0,1,2.2,1.72s0,0.07.07,0.1,0.3,0.33.43,0.52l0.1,0.15a8.32,8.32,0,0,1,.48.92l0.16,0.33a9.87,9.87,0,0,1,.59,3.37l-5.17-1Zm-17.89-1.17a2.05,2.05,0,1,1-2.4,1.64A2,2,0,0,1,114.72,248.7Zm3,2,3,0.57a9.53,9.53,0,0,0-1.68,3.86c0,0.18,0,.37-0.06.55l-2.22-2.55a3.46,3.46,0,0,0,.89-1.75A3.38,3.38,0,0,0,117.75,250.66Zm7.62,3.47a0.68,0.68,0,0,0-.64.62l-0.25,1.35-1.35-.25a0.68,0.68,0,0,0-.21,0,0.69,0.69,0,1,0,0,1.39h0l1.35,0.25L124,258.79a0.68,0.68,0,1,0,1.34.27v0l0.25-1.35,1.35,0.25a0.68,0.68,0,1,0,.27-1.34h0l-1.35-.25,0.25-1.35a0.68,0.68,0,0,0-.49-0.84l-0.13,0ZM122,263.91a9.64,9.64,0,0,0,10,1.87l0.49,3-12-2.25Z" transform="translate(-1.68 0.14)"/><g class="cls-2"><path class="cls-3" d="M125.43,227.4a28,28,0,1,1-5.18.48,28,28,0,0,1,5.18-.48m0-.81a28.76,28.76,0,1,0,28.24,23.47,29,29,0,0,0-28.24-23.47h0Z" transform="translate(-1.68 0.14)"/></g><circle class="cls-1" cx="257.65" cy="270.54" r="39.37" transform="translate(-50.81 483.89) rotate(-81.2)"/><g class="cls-2"><path class="cls-3" d="M257.6,231.16a39.37,39.37,0,1,1-38.86,33.35,39.68,39.68,0,0,1,38.86-33.35m0-1.14a40.51,40.51,0,0,0-6.15,80.55,41,41,0,0,0,6.25.48,40.51,40.51,0,0,0,6.15-80.55,41,41,0,0,0-6.25-.48h0Z" transform="translate(-1.68 0.14)"/></g><path class="cls-3" d="M259.61,252.46a6,6,0,0,0-1.6,1.66,5.17,5.17,0,0,0-5.75.1,3,3,0,0,0-1.45-1.14,3.79,3.79,0,0,0-4.4,1c-0.41.49-.53,0.83-0.72,1a4.47,4.47,0,0,0-4.21,3.88c0,0.21,0,.14,0,0.14v0.07c-2.8.38-5.07,2.26-5.16,5a6,6,0,0,0,1.88,4.33c-2.18,1.32-3.65,3.57-3.06,6a5.79,5.79,0,0,0,2.65,3.45,5.14,5.14,0,0,0,2.58.68A5.53,5.53,0,0,0,246.1,283a5.67,5.67,0,0,0,2.63-1,2.53,2.53,0,0,1-.49,1.34c-0.51.76-1.58,1.46-1.88,3a2.7,2.7,0,0,0,1.52,3,3.63,3.63,0,0,0,3.32-.41,3.73,3.73,0,0,0,1-1c0.34-.44.7-1,1.1-1.6,0.79-1.23,1.71-2.72,2.56-4.2,1.35-2.36,2-3.81,2.49-4.64,1.84,2.09,4.63,3.21,7.33,2.05a6.42,6.42,0,0,0,3.07-2.92,5.53,5.53,0,0,0,2.88,2c2.51,0.58,4.69-.89,5.85-3.06a5.5,5.5,0,0,0,1.73-10.7A5.48,5.48,0,0,0,275,259a5,5,0,0,0-.77,0c-0.22-2.57-1.81-4.85-4.43-5.22a5.83,5.83,0,0,0-2.62.44,6.42,6.42,0,0,0-3-2.23A6,6,0,0,0,259.61,252.46Zm6.48,3.41a1.12,1.12,0,0,0,1.42.43,3.25,3.25,0,0,1,2-.4,3.39,3.39,0,0,1,2.86,3.91h0a1.12,1.12,0,0,0,1,1.21,10.37,10.37,0,0,1,1.26.12,3.33,3.33,0,0,1,2.55,4.08,1.12,1.12,0,0,0,.8,1.26,3.55,3.55,0,0,1,2.68,3.25,3.31,3.31,0,0,1-2.56,3.28,5.44,5.44,0,0,0-.59-3.06,1.12,1.12,0,1,0-1.81,1.21,3.46,3.46,0,0,1,.43,2.69,3.3,3.3,0,0,1-4,2.5,3.39,3.39,0,0,1-2.63-3.59,1.12,1.12,0,0,0,.13-0.83v-0.07a1.64,1.64,0,0,1-.15-0.38l-0.06-.08a1.25,1.25,0,0,0-.93-0.43h-0.07l-0.15,0H268.2L268,271l-0.08.06a3.43,3.43,0,0,1-2.3-.71,3.3,3.3,0,0,1-.77-4.65,1.11,1.11,0,1,0-1.78-1.34,5.65,5.65,0,0,0,4.35,9,4.33,4.33,0,0,1-2.61,4.06,4.49,4.49,0,0,1-5.74-2.23,1.12,1.12,0,0,0-2,0s-1.48,2.81-3.15,5.74c-0.84,1.47-1.73,3-2.48,4.15-0.38.58-.73,1.11-1,1.47s-0.52.55-.43,0.5a1.56,1.56,0,0,1-1.24.23c-0.21-.09-0.3,0-0.2-0.53a21.57,21.57,0,0,1,1.53-2.1,5.64,5.64,0,0,0,.4-5.32,1.12,1.12,0,0,0-2-.17,3.25,3.25,0,0,1-2.59,1.65,3.35,3.35,0,0,1-2.88-1.08,6,6,0,0,0,2.64-.16,5.39,5.39,0,0,0,3.49-3.35,6.4,6.4,0,0,0,.41-2.63,1.11,1.11,0,1,0-2.22.15,4.21,4.21,0,0,1-.27,1.73,3,3,0,0,1-2.07,1.94,4.14,4.14,0,0,1-3.25-.5,1.13,1.13,0,0,0-.91-0.07,4.76,4.76,0,0,1-1.88-.65A3.8,3.8,0,0,1,237.3,274a3.48,3.48,0,0,1,2.47-4.08,5.81,5.81,0,0,0,7.06-1.24,1.13,1.13,0,1,0-1.76-1.41c-1.15,1.37-3.11,1.52-5,.22,0,0-.11,0-0.14,0a4.21,4.21,0,0,1-1.43-3.12,3.45,3.45,0,0,1,3.77-3.31,1.12,1.12,0,0,0,.9-0.36,2.67,2.67,0,0,0,.52-1.55,2.3,2.3,0,0,1,2.67-2.14,1.12,1.12,0,0,0,.89-0.29,8.74,8.74,0,0,0,.88-1.14,1.35,1.35,0,0,1,1.78-.5c0.61,0.27.58,0.65,1.36,1.27a1.12,1.12,0,0,0,1.51-.12,3.36,3.36,0,0,1,4.76-.11,1.12,1.12,0,0,0,1.73-.23,3.83,3.83,0,0,1,1.43-1.48,3.75,3.75,0,0,1,2.89-.4A4.36,4.36,0,0,1,266.09,255.87Zm-15.55,3h0a1.14,1.14,0,1,0,.58,2.21c2.2-.6,4,0.17,4.6,1.84a1.12,1.12,0,0,0,.33.62,5.42,5.42,0,0,0,.82,3.38l0.1,0.16a1.12,1.12,0,0,0,1.78-1.35,3.81,3.81,0,0,1,.3-4.2,1.14,1.14,0,1,0-1.93-1.22c-0.08.12-.13,0.27-0.2,0.39a5.41,5.41,0,0,0-2-1.51A6.6,6.6,0,0,0,250.54,258.91Zm-4,3.71a1.12,1.12,0,0,0-.66,1.44,6.12,6.12,0,0,0,4.8,4.64h0a1.12,1.12,0,1,0,.31-2.22,4,4,0,0,1-3-3.08A1.15,1.15,0,0,0,246.5,262.62Z" transform="translate(-1.68 0.14)"/><circle class="cls-1" cx="496.22" cy="205.81" r="39.37" transform="translate(191.22 649.33) rotate(-78.15)"/><g class="cls-2"><path class="cls-3" d="M496.18,166.43a39.38,39.38,0,1,1-38.49,31.29,39.53,39.53,0,0,1,38.49-31.29m0-1.14h0a40.52,40.52,0,1,0,39.69,48.84,40.51,40.51,0,0,0-31.33-48,40.79,40.79,0,0,0-8.36-.87h0Z" transform="translate(-1.68 0.14)"/></g><path class="cls-3" d="M498,188.1a0.79,0.79,0,0,0-.69.66l-0.5,2.37-2.37-.5a0.79,0.79,0,0,0-.94.61l-0.5,2.37-4-.83a0.79,0.79,0,0,0-.94.61L486.53,201a7.14,7.14,0,0,0-2.21,1.86,8.74,8.74,0,0,0-2,5.18,14.61,14.61,0,0,0,.07,1.58s0,0,0,0v0a2127958,2127958,0,0,0,0,.31l0,0.06a13.25,13.25,0,0,0,4.51,8.32c3.15,2.79,7.87,4.79,14.23,5.81a3.66,3.66,0,0,0,3.57-1.12,9.86,9.86,0,0,0,1.5-3.52,15.11,15.11,0,0,0-1-10.14,6.39,6.39,0,0,0,.26-4.39,7,7,0,0,0-.6-1.49,0.79,0.79,0,0,0,.69-0.66l1-4.74a0.79,0.79,0,0,0-.61-0.94l-2.18-.46,1.33-6.33a0.79,0.79,0,0,0-.61-0.94l-6.33-1.33A0.79,0.79,0,0,0,498,188.1Zm0.69,1.76,4.79,1-0.73,3.48a6.52,6.52,0,0,0-4.39-2.89Zm-3.8,2.48,1.35,0.28L495.76,195a0.79,0.79,0,1,0,1.54.35v0l0.49-2.32a4.86,4.86,0,0,1,4.2,3.3,8.27,8.27,0,0,0-6.9,2.09,11.86,11.86,0,0,0-2.61,3.29l0-.06a4.55,4.55,0,0,1,1.27-6.3l0.06,0,0.11,0a0.79,0.79,0,0,0,.53-0.6Zm-5.4,2.15,2.27,0.48a5.64,5.64,0,0,0-1.52,5.54,6.69,6.69,0,0,0-.68-0.14,5.13,5.13,0,0,0-1.32,0Zm13.32,3.65,0.15,0,2,0.42-0.69,3.29c-0.29-.05-0.68-0.06-1.14-0.09h0a2,2,0,0,0-.54-0.06l-0.36,0H502c-0.14,0-.28,0-0.42.06s-0.47.06-.68,0.11a5,5,0,0,0-.86.27l-0.17.07c-0.09,0-.19,0-0.27.09a3.54,3.54,0,0,0-.54.39,3.59,3.59,0,0,0-.51.5l-0.14.17-0.08.13a3,3,0,0,0-.3.69,2.85,2.85,0,0,0-.11.28l0,0.19a4.86,4.86,0,0,0-.08.64,4.29,4.29,0,0,0,0,1.16,2.62,2.62,0,0,0,0,.26,2.22,2.22,0,0,0,.42.9l0,0.06,0.12,0.13a2.67,2.67,0,0,0,.34.32,2.76,2.76,0,0,0,.26.21,4.43,4.43,0,0,0,.4.24l0.13,0.08h0a7.73,7.73,0,0,0,.84.33l0.57,0.17c0.92,0.29,1.85.53,2.73,0.72,1.41,3.35,1.81,6.42,1,9.19a9.44,9.44,0,0,1-1.17,2.93c-0.44.54-.88,0.77-2.09,0.57-6.16-1-10.6-2.93-13.44-5.45a11.64,11.64,0,0,1-4-7.1s0,0,0,0c0.23-.05.59-0.06,1-0.1a27,27,0,0,0,2.8-.37,7.22,7.22,0,0,0,3-1.28,5.15,5.15,0,0,0,1.86-3.09v0a0.79,0.79,0,0,0,0-.1V205a0.79,0.79,0,0,0,0-.1c0-.1.08-0.18,0.11-0.28s0.08-.18.11-0.28C494.53,200.47,499.2,197.66,502.83,198.14Zm-0.32,5.13h0a1,1,0,0,1,.75.51,4.55,4.55,0,0,1,.72,1.62,5.29,5.29,0,0,1-.15,2.9c-0.81-.18-1.58-0.35-2.17-0.5l-0.15,0c-0.26-.07-0.46-0.12-0.67-0.19a5.94,5.94,0,0,1-.65-0.29,3.32,3.32,0,0,1-.53-0.36,1.14,1.14,0,0,1-.21-0.2,0.66,0.66,0,0,1-.13-0.33,3.53,3.53,0,0,1,.34-2.1A1.51,1.51,0,0,1,500,204a2.12,2.12,0,0,1,.24-0.2l0.11,0a3.66,3.66,0,0,1,.71-0.25,5.7,5.7,0,0,1,.68-0.11A7,7,0,0,1,502.51,203.27ZM489.69,202a3.23,3.23,0,0,1,.76.21,1.9,1.9,0,0,1,.87.69s0,0.07,0,.11a3.28,3.28,0,0,1,0,.95c0,0.19,0,.39,0,0.6,0,0,0,0,0,0v0s0,0,0,0v0a0.8,0.8,0,0,0,0,.15l0,0.1a3.37,3.37,0,0,1-1.24,2.06,6,6,0,0,1-2.43,1,25.66,25.66,0,0,1-2.64.3c-0.36,0-.68.08-1,0.15,0-.17,0-0.33,0-0.5a7.56,7.56,0,0,1,1.65-4.25,5.28,5.28,0,0,1,1.78-1.49l0.11,0,0.11,0,0.06,0a3.8,3.8,0,0,1,.59-0.18l0.11,0A4.56,4.56,0,0,1,489.69,202Z" transform="translate(-1.68 0.14)"/><circle class="cls-1" cx="424.39" cy="79.98" r="39.6" transform="translate(-9.14 83.09) rotate(-11.07)"/><g class="cls-2"><path class="cls-3" d="M424.43,40.37a39.64,39.64,0,1,1-7.65.74,39.62,39.62,0,0,1,7.65-.74m0-1.15a41.07,41.07,0,0,0-7.87.77,40.75,40.75,0,0,0,7.78,80.75,41.07,41.07,0,0,0,7.87-.77,40.75,40.75,0,0,0-7.78-80.75h0Z" transform="translate(-1.68 0.14)"/></g><path class="cls-3" d="M419.21,55.48l-4.65.91a0.82,0.82,0,0,0-.62.93l0.3,1.55-5.43,1.06,0.3,1.55,5.43-1.06,0.3,1.55a0.82,0.82,0,0,0,.93.62l1.55-.3,0.91,4.65-7.76,1.52a0.82,0.82,0,0,0-.62.93l0.88,4.51a0.79,0.79,0,0,0,.08.39l1.62,8.29a9.45,9.45,0,0,0,10.34,7.59l0.31,1.6L422,92c-1,.17-1.89.37-1.89,0.37a0.82,0.82,0,0,0-.62.93l1.21,6.21a0.82,0.82,0,0,0,.93.62l3.05-.6c0.09,0.42.19,0.94,0.29,1.5,0.22,1.16.41,2.34,0.41,2.34a0.79,0.79,0,1,0,1.56-.25s-0.19-1.17-.41-2.34c-0.11-.59-0.23-1.2-0.32-1.65,0-.22-0.07-0.39-0.1-0.53s0-.12,0-0.19A1.78,1.78,0,0,0,426,98.2a0.87,0.87,0,0,0-.13-0.17l-0.06,0-0.13-.13-0.26,0h-0.3l-3,.59-0.91-4.65c0.37-.06.56-0.11,1.12-0.22l1.31-.26c0.19,0,.36-0.05.48-0.09a0.82,0.82,0,0,0,.19,0,0.78,0.78,0,0,0,.18-0.09l0.09-.07a0.49,0.49,0,0,0,.08-0.12l0.16-.23,0-.41-0.46-2.38A9.45,9.45,0,0,0,431,78.94l-1.58-8.1c-0.25-1.59-.69-3.41-1-5.09a0.81,0.81,0,0,0-.69-0.67,0.79,0.79,0,0,0-.24,0l-7.76,1.52L418.87,62l1.55-.3a0.82,0.82,0,0,0,.62-0.93l-0.3-1.55,8.53-1.67a4.48,4.48,0,0,1,4.64,3.12L441.81,101l1.55-.3-7.89-40.34A5.59,5.59,0,0,0,433,57a5.42,5.42,0,0,0-4-1l-8.53,1.67-0.3-1.55a0.81,0.81,0,0,0-.69-0.67A0.79,0.79,0,0,0,419.21,55.48Zm0.13,4.81-3.1.61-0.61-3.1,3.1-.61Zm8.33,9.65-15.51,3-0.61-3.1,15.51-3Zm1.82,9.31a7.88,7.88,0,0,1-6,9.23h0l-0.11,0a0.79,0.79,0,0,0-.28.11h0a7.88,7.88,0,0,1-9-6.29l-1.52-7.76,15.51-3ZM420,74.8a1.53,1.53,0,0,0-.2.24,5.47,5.47,0,0,0-.38.63,15.33,15.33,0,0,0-.81,1.77,7.91,7.91,0,0,0-.76,4.08A4,4,0,1,0,425.62,80a7.91,7.91,0,0,0-2.24-3.49A15.33,15.33,0,0,0,422,75.18a5.44,5.44,0,0,0-.59-0.44,1.53,1.53,0,0,0-.28-0.15A1.07,1.07,0,0,0,420,74.8Zm1,1.57a14.81,14.81,0,0,1,1.24,1.22,8.88,8.88,0,0,1,1.84,2.71,2.37,2.37,0,0,1-4.65.91,8.88,8.88,0,0,1,.68-3.2,14.81,14.81,0,0,1,.69-1.6c0-.06,0-0.07.08-0.12Z" transform="translate(-1.68 0.14)"/></svg>